<svg width="170" height="170" viewBox="0 0 170 170" fill="none" xmlns="http://www.w3.org/2000/svg">
    <rect width="170" height="170" rx="35" fill="#0047FF"/>
    <path d="M114.1 112.1L109.9 102.6C106.9 104.667 103.633 106.267 100.1 107.4C96.5 108.467 92.9333 109.033 89.4 109.1C85.8667 109.167 82.6667 108.767 79.8 107.9C76.8667 107.033 74.5333 105.733 72.8 104C71.0667 102.267 70.2 100.1 70.2 97.5C70.2 94.3667 71.5 92.0333 74.1 90.5C76.6333 88.9 80.1 88.1 84.5 88.1H100.8V77.9H85.5C81.5667 77.9 78.5333 77.1 76.4 75.5C74.2 73.9 73.1 71.7333 73.1 69C73.1 66.7333 73.8333 64.8667 75.3 63.4C76.7 61.9333 78.6333 60.8333 81.1 60.1C83.5 59.3667 86.2333 59.0333 89.3 59.1C92.3 59.1 95.4333 59.5667 98.7 60.5C101.967 61.3667 105.067 62.6667 108 64.4L112.1 53.9C107.7 51.5667 103.1 49.9333 98.3 49C93.4333 48.0667 88.7333 47.8 84.2 48.2C79.6667 48.6 75.6 49.6333 72 51.3C68.3333 52.9667 65.4 55.1667 63.2 57.9C61 60.5667 59.9 63.7333 59.9 67.4C59.9 70.7333 60.8 73.7 62.6 76.3C64.3333 78.8333 66.7333 80.8 69.8 82.2C72.8667 83.6 76.4333 84.3 80.5 84.3L80 81.1C75.4 81.1 71.4 81.9 68 83.5C64.5333 85.0333 61.8667 87.1667 60 89.9C58.0667 92.6333 57.1 95.8 57.1 99.4C57.1 102.8 57.9667 105.833 59.7 108.5C61.4333 111.1 63.8 113.3 66.8 115.1C69.8 116.833 73.2333 118.133 77.1 119C80.9667 119.8 85.0333 120.1 89.3 119.9C93.5667 119.7 97.8333 118.967 102.1 117.7C106.3 116.433 110.3 114.567 114.1 112.1Z" fill="white"/>
</svg>
